<mxfile host="app.diagrams.net" agent="Mozilla/5.0 (Windows NT 10.0; Win64; x64) AppleWebKit/537.36 (KHTML, like Gecko) Chrome/130.0.0.0 Safari/537.36" version="24.8.4">
  <diagram name="Halaman-1" id="Y80M56ZSuJKKFgf_Gu2e">
    <mxGraphModel dx="639" dy="546" grid="1" gridSize="10" guides="1" tooltips="1" connect="1" arrows="1" fold="1" page="1" pageScale="1" pageWidth="827" pageHeight="1169" math="0" shadow="0">
      <root>
        <mxCell id="0" />
        <mxCell id="1" parent="0" />
        <mxCell id="62EWxUmSz6-aSFfVlWEd-33" value="Koperasi" style="whiteSpace=wrap;html=1;align=center;fillColor=#33FF33;" vertex="1" parent="1">
          <mxGeometry x="360" y="80" width="80" height="30" as="geometry" />
        </mxCell>
        <mxCell id="62EWxUmSz6-aSFfVlWEd-50" value="Anggota" style="whiteSpace=wrap;html=1;align=center;fillColor=#33FF33;" vertex="1" parent="1">
          <mxGeometry x="219.72" y="280" width="80" height="30" as="geometry" />
        </mxCell>
        <mxCell id="62EWxUmSz6-aSFfVlWEd-73" value="Modal" style="whiteSpace=wrap;html=1;align=center;fillColor=#33FF33;" vertex="1" parent="1">
          <mxGeometry x="359.72" y="220" width="80" height="30" as="geometry" />
        </mxCell>
        <mxCell id="62EWxUmSz6-aSFfVlWEd-84" value="Transaksi" style="whiteSpace=wrap;html=1;align=center;fillColor=#33FF33;" vertex="1" parent="1">
          <mxGeometry x="359.72" y="345" width="80" height="30" as="geometry" />
        </mxCell>
        <mxCell id="62EWxUmSz6-aSFfVlWEd-98" value="Laporan" style="whiteSpace=wrap;html=1;align=center;fillColor=#33FF33;" vertex="1" parent="1">
          <mxGeometry x="530" y="450" width="80" height="30" as="geometry" />
        </mxCell>
        <mxCell id="62EWxUmSz6-aSFfVlWEd-51" value="Pengurus" style="whiteSpace=wrap;html=1;align=center;fillColor=#33FF33;" vertex="1" parent="1">
          <mxGeometry x="500" y="280" width="80" height="30" as="geometry" />
        </mxCell>
        <mxCell id="62EWxUmSz6-aSFfVlWEd-34" value="NIK" style="ellipse;whiteSpace=wrap;html=1;align=center;fontStyle=4;fillColor=#3399FF;" vertex="1" parent="1">
          <mxGeometry x="250" y="40" width="70" height="30" as="geometry" />
        </mxCell>
        <mxCell id="62EWxUmSz6-aSFfVlWEd-36" value="Jenis" style="ellipse;whiteSpace=wrap;html=1;align=center;fontStyle=0;fillColor=#3399FF;" vertex="1" parent="1">
          <mxGeometry x="410" y="10" width="70" height="30" as="geometry" />
        </mxCell>
        <mxCell id="62EWxUmSz6-aSFfVlWEd-38" value="Alamat" style="ellipse;whiteSpace=wrap;html=1;align=center;fontStyle=0;fillColor=#3399FF;" vertex="1" parent="1">
          <mxGeometry x="480" y="40" width="70" height="30" as="geometry" />
        </mxCell>
        <mxCell id="62EWxUmSz6-aSFfVlWEd-53" value="Id_Pengrs" style="ellipse;whiteSpace=wrap;html=1;align=center;fontStyle=4;fillColor=#3399FF;" vertex="1" parent="1">
          <mxGeometry x="620" y="220" width="70" height="30" as="geometry" />
        </mxCell>
        <mxCell id="62EWxUmSz6-aSFfVlWEd-76" value="Id_Modal" style="ellipse;whiteSpace=wrap;html=1;align=center;fontStyle=0;fillColor=#3399FF;" vertex="1" parent="1">
          <mxGeometry x="270" y="220" width="70" height="30" as="geometry" />
        </mxCell>
        <mxCell id="62EWxUmSz6-aSFfVlWEd-101" value="Id_Anggota" style="ellipse;whiteSpace=wrap;html=1;align=center;fontStyle=0;fillColor=#3399FF;" vertex="1" parent="1">
          <mxGeometry x="130" y="220" width="70" height="30" as="geometry" />
        </mxCell>
        <mxCell id="62EWxUmSz6-aSFfVlWEd-55" value="Bonus" style="ellipse;whiteSpace=wrap;html=1;align=center;fontStyle=0;fillColor=#3399FF;" vertex="1" parent="1">
          <mxGeometry x="620" y="330" width="70" height="30" as="geometry" />
        </mxCell>
        <mxCell id="62EWxUmSz6-aSFfVlWEd-108" value="Simpanan" style="ellipse;whiteSpace=wrap;html=1;align=center;fontStyle=0;fillColor=#3399FF;" vertex="1" parent="1">
          <mxGeometry x="289.72" y="500" width="70" height="30" as="geometry" />
        </mxCell>
        <mxCell id="62EWxUmSz6-aSFfVlWEd-119" value="Id_transaksi" style="ellipse;whiteSpace=wrap;html=1;align=center;fontStyle=4;fillColor=#3399FF;" vertex="1" parent="1">
          <mxGeometry x="289.72" y="400" width="70" height="30" as="geometry" />
        </mxCell>
        <mxCell id="62EWxUmSz6-aSFfVlWEd-117" value="Pinjaman" style="ellipse;whiteSpace=wrap;html=1;align=center;fontStyle=0;fillColor=#3399FF;" vertex="1" parent="1">
          <mxGeometry x="365" y="500" width="70" height="30" as="geometry" />
        </mxCell>
        <mxCell id="62EWxUmSz6-aSFfVlWEd-111" value="Tanggal" style="ellipse;whiteSpace=wrap;html=1;align=center;fontStyle=0;fillColor=#3399FF;" vertex="1" parent="1">
          <mxGeometry x="410" y="440" width="70" height="30" as="geometry" />
        </mxCell>
        <mxCell id="62EWxUmSz6-aSFfVlWEd-112" value="Jumlah" style="ellipse;whiteSpace=wrap;html=1;align=center;fontStyle=0;fillColor=#3399FF;" vertex="1" parent="1">
          <mxGeometry x="439.72" y="400" width="70" height="30" as="geometry" />
        </mxCell>
        <mxCell id="62EWxUmSz6-aSFfVlWEd-121" value="Id_Laporan" style="ellipse;whiteSpace=wrap;html=1;align=center;fontStyle=4;fillColor=#3399FF;" vertex="1" parent="1">
          <mxGeometry x="460" y="500" width="70" height="30" as="geometry" />
        </mxCell>
        <mxCell id="62EWxUmSz6-aSFfVlWEd-123" value="Tanggal" style="ellipse;whiteSpace=wrap;html=1;align=center;fontStyle=0;fillColor=#3399FF;" vertex="1" parent="1">
          <mxGeometry x="535" y="520" width="70" height="30" as="geometry" />
        </mxCell>
        <mxCell id="62EWxUmSz6-aSFfVlWEd-78" value="Jmlh_Modl" style="ellipse;whiteSpace=wrap;html=1;align=center;fontStyle=0;fillColor=#3399FF;" vertex="1" parent="1">
          <mxGeometry x="460" y="220" width="70" height="30" as="geometry" />
        </mxCell>
        <mxCell id="62EWxUmSz6-aSFfVlWEd-39" value="Nama" style="ellipse;whiteSpace=wrap;html=1;align=center;fontStyle=0;fillColor=#3399FF;" vertex="1" parent="1">
          <mxGeometry x="320" y="10" width="70" height="30" as="geometry" />
        </mxCell>
        <mxCell id="62EWxUmSz6-aSFfVlWEd-35" style="edgeStyle=orthogonalEdgeStyle;rounded=0;orthogonalLoop=1;jettySize=auto;html=1;exitX=0.5;exitY=1;exitDx=0;exitDy=0;" edge="1" parent="1" source="62EWxUmSz6-aSFfVlWEd-34" target="62EWxUmSz6-aSFfVlWEd-34">
          <mxGeometry relative="1" as="geometry" />
        </mxCell>
        <mxCell id="62EWxUmSz6-aSFfVlWEd-41" value="" style="endArrow=none;html=1;rounded=0;exitX=1;exitY=1;exitDx=0;exitDy=0;entryX=0;entryY=0.5;entryDx=0;entryDy=0;" edge="1" parent="1" source="62EWxUmSz6-aSFfVlWEd-34" target="62EWxUmSz6-aSFfVlWEd-33">
          <mxGeometry relative="1" as="geometry">
            <mxPoint x="350" y="160" as="sourcePoint" />
            <mxPoint x="510" y="160" as="targetPoint" />
          </mxGeometry>
        </mxCell>
        <mxCell id="62EWxUmSz6-aSFfVlWEd-104" value="" style="endArrow=none;html=1;rounded=0;exitX=1;exitY=1;exitDx=0;exitDy=0;entryX=0;entryY=0;entryDx=0;entryDy=0;" edge="1" parent="1" source="62EWxUmSz6-aSFfVlWEd-101" target="62EWxUmSz6-aSFfVlWEd-50">
          <mxGeometry relative="1" as="geometry">
            <mxPoint x="320" y="75" as="sourcePoint" />
            <mxPoint x="370" y="105" as="targetPoint" />
          </mxGeometry>
        </mxCell>
        <mxCell id="62EWxUmSz6-aSFfVlWEd-105" value="" style="endArrow=none;html=1;rounded=0;exitX=1;exitY=0.5;exitDx=0;exitDy=0;entryX=0;entryY=0.5;entryDx=0;entryDy=0;" edge="1" parent="1" source="62EWxUmSz6-aSFfVlWEd-102" target="62EWxUmSz6-aSFfVlWEd-50">
          <mxGeometry relative="1" as="geometry">
            <mxPoint x="215" y="270" as="sourcePoint" />
            <mxPoint x="230" y="290" as="targetPoint" />
          </mxGeometry>
        </mxCell>
        <mxCell id="62EWxUmSz6-aSFfVlWEd-106" value="" style="endArrow=none;html=1;rounded=0;exitX=0.733;exitY=0.054;exitDx=0;exitDy=0;entryX=0;entryY=1;entryDx=0;entryDy=0;exitPerimeter=0;" edge="1" parent="1" source="62EWxUmSz6-aSFfVlWEd-103" target="62EWxUmSz6-aSFfVlWEd-50">
          <mxGeometry relative="1" as="geometry">
            <mxPoint x="170" y="280" as="sourcePoint" />
            <mxPoint x="230" y="305" as="targetPoint" />
          </mxGeometry>
        </mxCell>
        <mxCell id="62EWxUmSz6-aSFfVlWEd-113" value="" style="endArrow=none;html=1;rounded=0;exitX=0.5;exitY=0;exitDx=0;exitDy=0;entryX=0;entryY=1;entryDx=0;entryDy=0;" edge="1" parent="1" source="62EWxUmSz6-aSFfVlWEd-108" target="62EWxUmSz6-aSFfVlWEd-110">
          <mxGeometry relative="1" as="geometry">
            <mxPoint x="181.28" y="437" as="sourcePoint" />
            <mxPoint x="360" y="510" as="targetPoint" />
          </mxGeometry>
        </mxCell>
        <mxCell id="62EWxUmSz6-aSFfVlWEd-120" value="" style="endArrow=none;html=1;rounded=0;exitX=1;exitY=0;exitDx=0;exitDy=0;entryX=0;entryY=1;entryDx=0;entryDy=0;" edge="1" source="62EWxUmSz6-aSFfVlWEd-119" parent="1" target="62EWxUmSz6-aSFfVlWEd-84">
          <mxGeometry relative="1" as="geometry">
            <mxPoint x="181.28" y="337" as="sourcePoint" />
            <mxPoint x="360" y="370" as="targetPoint" />
          </mxGeometry>
        </mxCell>
        <mxCell id="62EWxUmSz6-aSFfVlWEd-118" value="" style="endArrow=none;html=1;rounded=0;exitX=0.5;exitY=0;exitDx=0;exitDy=0;entryX=1;entryY=1;entryDx=0;entryDy=0;" edge="1" source="62EWxUmSz6-aSFfVlWEd-117" parent="1" target="62EWxUmSz6-aSFfVlWEd-110">
          <mxGeometry relative="1" as="geometry">
            <mxPoint x="256.28" y="437" as="sourcePoint" />
            <mxPoint x="415" y="465" as="targetPoint" />
          </mxGeometry>
        </mxCell>
        <mxCell id="62EWxUmSz6-aSFfVlWEd-128" value="" style="endArrow=none;html=1;rounded=0;exitX=1;exitY=0;exitDx=0;exitDy=0;entryX=0;entryY=1;entryDx=0;entryDy=0;" edge="1" parent="1" source="62EWxUmSz6-aSFfVlWEd-121" target="62EWxUmSz6-aSFfVlWEd-98">
          <mxGeometry relative="1" as="geometry">
            <mxPoint x="410" y="510" as="sourcePoint" />
            <mxPoint x="400" y="475" as="targetPoint" />
          </mxGeometry>
        </mxCell>
        <mxCell id="62EWxUmSz6-aSFfVlWEd-129" value="" style="endArrow=none;html=1;rounded=0;exitX=0.5;exitY=0;exitDx=0;exitDy=0;entryX=0.5;entryY=1;entryDx=0;entryDy=0;" edge="1" parent="1" source="62EWxUmSz6-aSFfVlWEd-123" target="62EWxUmSz6-aSFfVlWEd-98">
          <mxGeometry relative="1" as="geometry">
            <mxPoint x="530" y="515" as="sourcePoint" />
            <mxPoint x="540" y="490" as="targetPoint" />
          </mxGeometry>
        </mxCell>
        <mxCell id="62EWxUmSz6-aSFfVlWEd-133" value="" style="endArrow=none;html=1;rounded=0;exitX=0;exitY=0;exitDx=0;exitDy=0;entryX=1;entryY=1;entryDx=0;entryDy=0;" edge="1" parent="1" source="62EWxUmSz6-aSFfVlWEd-132" target="62EWxUmSz6-aSFfVlWEd-98">
          <mxGeometry relative="1" as="geometry">
            <mxPoint x="580" y="530" as="sourcePoint" />
            <mxPoint x="580" y="490" as="targetPoint" />
          </mxGeometry>
        </mxCell>
        <mxCell id="62EWxUmSz6-aSFfVlWEd-114" value="" style="endArrow=none;html=1;rounded=0;exitX=0.5;exitY=0;exitDx=0;exitDy=0;entryX=0.25;entryY=1;entryDx=0;entryDy=0;" edge="1" parent="1" source="62EWxUmSz6-aSFfVlWEd-110" target="62EWxUmSz6-aSFfVlWEd-84">
          <mxGeometry relative="1" as="geometry">
            <mxPoint x="360" y="415" as="sourcePoint" />
            <mxPoint x="370" y="385" as="targetPoint" />
          </mxGeometry>
        </mxCell>
        <mxCell id="62EWxUmSz6-aSFfVlWEd-115" value="" style="endArrow=none;html=1;rounded=0;exitX=0.5;exitY=0;exitDx=0;exitDy=0;entryX=0.75;entryY=1;entryDx=0;entryDy=0;" edge="1" parent="1" source="62EWxUmSz6-aSFfVlWEd-111" target="62EWxUmSz6-aSFfVlWEd-84">
          <mxGeometry relative="1" as="geometry">
            <mxPoint x="375" y="450" as="sourcePoint" />
            <mxPoint x="390" y="385" as="targetPoint" />
          </mxGeometry>
        </mxCell>
        <mxCell id="62EWxUmSz6-aSFfVlWEd-116" value="" style="endArrow=none;html=1;rounded=0;exitX=0;exitY=0;exitDx=0;exitDy=0;entryX=1;entryY=1;entryDx=0;entryDy=0;" edge="1" parent="1" source="62EWxUmSz6-aSFfVlWEd-112" target="62EWxUmSz6-aSFfVlWEd-84">
          <mxGeometry relative="1" as="geometry">
            <mxPoint x="455" y="450" as="sourcePoint" />
            <mxPoint x="440" y="380" as="targetPoint" />
          </mxGeometry>
        </mxCell>
        <mxCell id="62EWxUmSz6-aSFfVlWEd-42" value="" style="endArrow=none;html=1;rounded=0;exitX=0.5;exitY=1;exitDx=0;exitDy=0;entryX=0.25;entryY=0;entryDx=0;entryDy=0;" edge="1" parent="1" source="62EWxUmSz6-aSFfVlWEd-39" target="62EWxUmSz6-aSFfVlWEd-33">
          <mxGeometry relative="1" as="geometry">
            <mxPoint x="350" y="160" as="sourcePoint" />
            <mxPoint x="510" y="160" as="targetPoint" />
          </mxGeometry>
        </mxCell>
        <mxCell id="62EWxUmSz6-aSFfVlWEd-43" value="" style="endArrow=none;html=1;rounded=0;entryX=1;entryY=0.5;entryDx=0;entryDy=0;exitX=0;exitY=1;exitDx=0;exitDy=0;" edge="1" parent="1" source="62EWxUmSz6-aSFfVlWEd-38" target="62EWxUmSz6-aSFfVlWEd-33">
          <mxGeometry relative="1" as="geometry">
            <mxPoint x="488" y="70" as="sourcePoint" />
            <mxPoint x="510" y="160" as="targetPoint" />
          </mxGeometry>
        </mxCell>
        <mxCell id="62EWxUmSz6-aSFfVlWEd-44" value="" style="endArrow=none;html=1;rounded=0;exitX=0.5;exitY=1;exitDx=0;exitDy=0;entryX=0.75;entryY=0;entryDx=0;entryDy=0;" edge="1" parent="1" source="62EWxUmSz6-aSFfVlWEd-36" target="62EWxUmSz6-aSFfVlWEd-33">
          <mxGeometry relative="1" as="geometry">
            <mxPoint x="350" y="160" as="sourcePoint" />
            <mxPoint x="510" y="160" as="targetPoint" />
          </mxGeometry>
        </mxCell>
        <mxCell id="62EWxUmSz6-aSFfVlWEd-45" value="Memiliki" style="shape=rhombus;perimeter=rhombusPerimeter;whiteSpace=wrap;html=1;align=center;fillColor=#FA4032;" vertex="1" parent="1">
          <mxGeometry x="360" y="140" width="80" height="40" as="geometry" />
        </mxCell>
        <mxCell id="62EWxUmSz6-aSFfVlWEd-67" value="Mengurus" style="shape=rhombus;perimeter=rhombusPerimeter;whiteSpace=wrap;html=1;align=center;fillColor=#FF4545;" vertex="1" parent="1">
          <mxGeometry x="359.72" y="275" width="80" height="40" as="geometry" />
        </mxCell>
        <mxCell id="62EWxUmSz6-aSFfVlWEd-85" value="Mengurus" style="shape=rhombus;perimeter=rhombusPerimeter;whiteSpace=wrap;html=1;align=center;fillColor=#FF4545;" vertex="1" parent="1">
          <mxGeometry x="480" y="340" width="80" height="40" as="geometry" />
        </mxCell>
        <mxCell id="62EWxUmSz6-aSFfVlWEd-95" value="Mengurus" style="shape=rhombus;perimeter=rhombusPerimeter;whiteSpace=wrap;html=1;align=center;fillColor=#FF4545;" vertex="1" parent="1">
          <mxGeometry x="530" y="380" width="80" height="40" as="geometry" />
        </mxCell>
        <mxCell id="62EWxUmSz6-aSFfVlWEd-86" value="Melakukan" style="shape=rhombus;perimeter=rhombusPerimeter;whiteSpace=wrap;html=1;align=center;fillColor=#FF4545;" vertex="1" parent="1">
          <mxGeometry x="240.00000000000003" y="340" width="80" height="40" as="geometry" />
        </mxCell>
        <mxCell id="62EWxUmSz6-aSFfVlWEd-46" value="" style="endArrow=none;html=1;rounded=0;exitX=0.5;exitY=1;exitDx=0;exitDy=0;entryX=0.5;entryY=0;entryDx=0;entryDy=0;" edge="1" parent="1" source="62EWxUmSz6-aSFfVlWEd-33" target="62EWxUmSz6-aSFfVlWEd-45">
          <mxGeometry relative="1" as="geometry">
            <mxPoint x="340" y="190" as="sourcePoint" />
            <mxPoint x="500" y="190" as="targetPoint" />
          </mxGeometry>
        </mxCell>
        <mxCell id="62EWxUmSz6-aSFfVlWEd-47" value="1" style="resizable=0;html=1;whiteSpace=wrap;align=right;verticalAlign=bottom;" connectable="0" vertex="1" parent="62EWxUmSz6-aSFfVlWEd-46">
          <mxGeometry x="1" relative="1" as="geometry" />
        </mxCell>
        <mxCell id="62EWxUmSz6-aSFfVlWEd-52" value="Jabatan" style="ellipse;shape=doubleEllipse;margin=3;whiteSpace=wrap;html=1;align=center;fillColor=#3399FF;" vertex="1" parent="1">
          <mxGeometry x="620" y="280" width="70" height="30" as="geometry" />
        </mxCell>
        <mxCell id="62EWxUmSz6-aSFfVlWEd-132" value="Jenis" style="ellipse;shape=doubleEllipse;margin=3;whiteSpace=wrap;html=1;align=center;fillColor=#3399FF;" vertex="1" parent="1">
          <mxGeometry x="610" y="500" width="70" height="30" as="geometry" />
        </mxCell>
        <mxCell id="62EWxUmSz6-aSFfVlWEd-110" value="Jenis" style="ellipse;shape=doubleEllipse;margin=3;whiteSpace=wrap;html=1;align=center;fillColor=#3399FF;" vertex="1" parent="1">
          <mxGeometry x="330" y="440" width="70" height="30" as="geometry" />
        </mxCell>
        <mxCell id="62EWxUmSz6-aSFfVlWEd-102" value="Biodata" style="ellipse;shape=doubleEllipse;margin=3;whiteSpace=wrap;html=1;align=center;fillColor=#3399FF;" vertex="1" parent="1">
          <mxGeometry x="100" y="280" width="70" height="30" as="geometry" />
        </mxCell>
        <mxCell id="62EWxUmSz6-aSFfVlWEd-103" value="Sts_Kngtn" style="ellipse;shape=doubleEllipse;margin=3;whiteSpace=wrap;html=1;align=center;fillColor=#3399FF;" vertex="1" parent="1">
          <mxGeometry x="130" y="330" width="70" height="30" as="geometry" />
        </mxCell>
        <mxCell id="62EWxUmSz6-aSFfVlWEd-79" value="Arus_Kas" style="ellipse;shape=doubleEllipse;margin=3;whiteSpace=wrap;html=1;align=center;fillColor=#3399FF;" vertex="1" parent="1">
          <mxGeometry x="450" y="180" width="70" height="30" as="geometry" />
        </mxCell>
        <mxCell id="62EWxUmSz6-aSFfVlWEd-77" value="Sumber" style="ellipse;shape=doubleEllipse;margin=3;whiteSpace=wrap;html=1;align=center;fillColor=#3399FF;" vertex="1" parent="1">
          <mxGeometry x="280" y="180" width="70" height="30" as="geometry" />
        </mxCell>
        <mxCell id="62EWxUmSz6-aSFfVlWEd-57" value="" style="endArrow=none;html=1;rounded=0;entryX=0.5;entryY=0;entryDx=0;entryDy=0;exitX=0;exitY=0.5;exitDx=0;exitDy=0;" edge="1" parent="1" source="62EWxUmSz6-aSFfVlWEd-45" target="62EWxUmSz6-aSFfVlWEd-50">
          <mxGeometry relative="1" as="geometry">
            <mxPoint x="320" y="160" as="sourcePoint" />
            <mxPoint x="310" y="160" as="targetPoint" />
            <Array as="points">
              <mxPoint x="260" y="160" />
            </Array>
          </mxGeometry>
        </mxCell>
        <mxCell id="62EWxUmSz6-aSFfVlWEd-58" value="N" style="resizable=0;html=1;whiteSpace=wrap;align=right;verticalAlign=bottom;" connectable="0" vertex="1" parent="62EWxUmSz6-aSFfVlWEd-57">
          <mxGeometry x="1" relative="1" as="geometry" />
        </mxCell>
        <mxCell id="62EWxUmSz6-aSFfVlWEd-59" value="" style="endArrow=none;html=1;rounded=0;exitX=1;exitY=0.5;exitDx=0;exitDy=0;entryX=0.5;entryY=0;entryDx=0;entryDy=0;" edge="1" parent="1" source="62EWxUmSz6-aSFfVlWEd-45" target="62EWxUmSz6-aSFfVlWEd-51">
          <mxGeometry relative="1" as="geometry">
            <mxPoint x="450" y="160" as="sourcePoint" />
            <mxPoint x="510" y="160" as="targetPoint" />
            <Array as="points">
              <mxPoint x="540" y="160" />
            </Array>
          </mxGeometry>
        </mxCell>
        <mxCell id="62EWxUmSz6-aSFfVlWEd-60" value="N" style="resizable=0;html=1;whiteSpace=wrap;align=right;verticalAlign=bottom;" connectable="0" vertex="1" parent="62EWxUmSz6-aSFfVlWEd-59">
          <mxGeometry x="1" relative="1" as="geometry" />
        </mxCell>
        <mxCell id="62EWxUmSz6-aSFfVlWEd-62" value="" style="endArrow=none;html=1;rounded=0;entryX=0.271;entryY=0.965;entryDx=0;entryDy=0;exitX=1;exitY=0;exitDx=0;exitDy=0;entryPerimeter=0;" edge="1" parent="1" source="62EWxUmSz6-aSFfVlWEd-51" target="62EWxUmSz6-aSFfVlWEd-53">
          <mxGeometry relative="1" as="geometry">
            <mxPoint x="400" y="265" as="sourcePoint" />
            <mxPoint x="630.1479289940887" y="260.56213017751224" as="targetPoint" />
            <Array as="points" />
          </mxGeometry>
        </mxCell>
        <mxCell id="62EWxUmSz6-aSFfVlWEd-63" value="" style="endArrow=none;html=1;rounded=0;entryX=0;entryY=0.5;entryDx=0;entryDy=0;exitX=1;exitY=0.5;exitDx=0;exitDy=0;" edge="1" parent="1" source="62EWxUmSz6-aSFfVlWEd-51" target="62EWxUmSz6-aSFfVlWEd-52">
          <mxGeometry relative="1" as="geometry">
            <mxPoint x="400" y="265" as="sourcePoint" />
            <mxPoint x="560" y="265" as="targetPoint" />
          </mxGeometry>
        </mxCell>
        <mxCell id="62EWxUmSz6-aSFfVlWEd-64" value="" style="endArrow=none;html=1;rounded=0;entryX=0;entryY=0;entryDx=0;entryDy=0;exitX=1;exitY=1;exitDx=0;exitDy=0;" edge="1" parent="1" source="62EWxUmSz6-aSFfVlWEd-51" target="62EWxUmSz6-aSFfVlWEd-55">
          <mxGeometry relative="1" as="geometry">
            <mxPoint x="400" y="265" as="sourcePoint" />
            <mxPoint x="560" y="265" as="targetPoint" />
          </mxGeometry>
        </mxCell>
        <mxCell id="62EWxUmSz6-aSFfVlWEd-68" value="" style="endArrow=none;html=1;rounded=0;exitX=1;exitY=0.5;exitDx=0;exitDy=0;" edge="1" parent="1" source="62EWxUmSz6-aSFfVlWEd-50">
          <mxGeometry relative="1" as="geometry">
            <mxPoint x="419.72" y="290" as="sourcePoint" />
            <mxPoint x="359.72" y="295" as="targetPoint" />
          </mxGeometry>
        </mxCell>
        <mxCell id="62EWxUmSz6-aSFfVlWEd-69" value="1" style="resizable=0;html=1;whiteSpace=wrap;align=right;verticalAlign=bottom;" connectable="0" vertex="1" parent="62EWxUmSz6-aSFfVlWEd-68">
          <mxGeometry x="1" relative="1" as="geometry" />
        </mxCell>
        <mxCell id="62EWxUmSz6-aSFfVlWEd-87" value="" style="endArrow=none;html=1;rounded=0;exitX=0.75;exitY=1;exitDx=0;exitDy=0;entryX=0.5;entryY=0;entryDx=0;entryDy=0;" edge="1" parent="1" source="62EWxUmSz6-aSFfVlWEd-50" target="62EWxUmSz6-aSFfVlWEd-86">
          <mxGeometry relative="1" as="geometry">
            <mxPoint x="310" y="305" as="sourcePoint" />
            <mxPoint x="369.72" y="305" as="targetPoint" />
          </mxGeometry>
        </mxCell>
        <mxCell id="62EWxUmSz6-aSFfVlWEd-88" value="1" style="resizable=0;html=1;whiteSpace=wrap;align=right;verticalAlign=bottom;" connectable="0" vertex="1" parent="62EWxUmSz6-aSFfVlWEd-87">
          <mxGeometry x="1" relative="1" as="geometry" />
        </mxCell>
        <mxCell id="62EWxUmSz6-aSFfVlWEd-70" value="" style="endArrow=none;html=1;rounded=0;entryX=1;entryY=0.5;entryDx=0;entryDy=0;exitX=0;exitY=0.5;exitDx=0;exitDy=0;" edge="1" parent="1" source="62EWxUmSz6-aSFfVlWEd-51" target="62EWxUmSz6-aSFfVlWEd-67">
          <mxGeometry relative="1" as="geometry">
            <mxPoint x="430" y="310" as="sourcePoint" />
            <mxPoint x="580" y="210" as="targetPoint" />
          </mxGeometry>
        </mxCell>
        <mxCell id="62EWxUmSz6-aSFfVlWEd-71" value="N" style="resizable=0;html=1;whiteSpace=wrap;align=right;verticalAlign=bottom;" connectable="0" vertex="1" parent="62EWxUmSz6-aSFfVlWEd-70">
          <mxGeometry x="1" relative="1" as="geometry" />
        </mxCell>
        <mxCell id="62EWxUmSz6-aSFfVlWEd-89" value="" style="endArrow=none;html=1;rounded=0;entryX=0;entryY=0.5;entryDx=0;entryDy=0;exitX=1;exitY=0.5;exitDx=0;exitDy=0;" edge="1" parent="1" source="62EWxUmSz6-aSFfVlWEd-86" target="62EWxUmSz6-aSFfVlWEd-84">
          <mxGeometry relative="1" as="geometry">
            <mxPoint x="510" y="305" as="sourcePoint" />
            <mxPoint x="450" y="305" as="targetPoint" />
          </mxGeometry>
        </mxCell>
        <mxCell id="62EWxUmSz6-aSFfVlWEd-90" value="N" style="resizable=0;html=1;whiteSpace=wrap;align=right;verticalAlign=bottom;" connectable="0" vertex="1" parent="62EWxUmSz6-aSFfVlWEd-89">
          <mxGeometry x="1" relative="1" as="geometry" />
        </mxCell>
        <mxCell id="62EWxUmSz6-aSFfVlWEd-91" value="" style="endArrow=none;html=1;rounded=0;exitX=0;exitY=0.5;exitDx=0;exitDy=0;entryX=1;entryY=0.5;entryDx=0;entryDy=0;" edge="1" parent="1" source="62EWxUmSz6-aSFfVlWEd-85" target="62EWxUmSz6-aSFfVlWEd-84">
          <mxGeometry relative="1" as="geometry">
            <mxPoint x="310" y="370" as="sourcePoint" />
            <mxPoint x="460" y="370" as="targetPoint" />
          </mxGeometry>
        </mxCell>
        <mxCell id="62EWxUmSz6-aSFfVlWEd-92" value="N" style="resizable=0;html=1;whiteSpace=wrap;align=right;verticalAlign=bottom;" connectable="0" vertex="1" parent="62EWxUmSz6-aSFfVlWEd-91">
          <mxGeometry x="1" relative="1" as="geometry" />
        </mxCell>
        <mxCell id="62EWxUmSz6-aSFfVlWEd-99" value="" style="endArrow=none;html=1;rounded=0;exitX=0.5;exitY=0;exitDx=0;exitDy=0;entryX=0.5;entryY=1;entryDx=0;entryDy=0;align=left;fontStyle=0;verticalAlign=top;" edge="1" parent="1" source="62EWxUmSz6-aSFfVlWEd-98" target="62EWxUmSz6-aSFfVlWEd-95">
          <mxGeometry relative="1" as="geometry">
            <mxPoint x="490" y="370" as="sourcePoint" />
            <mxPoint x="450" y="370" as="targetPoint" />
          </mxGeometry>
        </mxCell>
        <mxCell id="62EWxUmSz6-aSFfVlWEd-100" value="N" style="resizable=0;html=1;whiteSpace=wrap;align=right;verticalAlign=bottom;" connectable="0" vertex="1" parent="62EWxUmSz6-aSFfVlWEd-99">
          <mxGeometry x="1" relative="1" as="geometry" />
        </mxCell>
        <mxCell id="62EWxUmSz6-aSFfVlWEd-72" value="" style="endArrow=none;html=1;rounded=0;exitX=1;exitY=1;exitDx=0;exitDy=0;entryX=0;entryY=0.75;entryDx=0;entryDy=0;" edge="1" parent="1" source="62EWxUmSz6-aSFfVlWEd-67" target="62EWxUmSz6-aSFfVlWEd-51">
          <mxGeometry relative="1" as="geometry">
            <mxPoint x="420" y="210" as="sourcePoint" />
            <mxPoint x="580" y="210" as="targetPoint" />
          </mxGeometry>
        </mxCell>
        <mxCell id="62EWxUmSz6-aSFfVlWEd-74" value="" style="endArrow=none;html=1;rounded=0;exitX=0.5;exitY=1;exitDx=0;exitDy=0;entryX=0.5;entryY=0;entryDx=0;entryDy=0;" edge="1" parent="1" source="62EWxUmSz6-aSFfVlWEd-45" target="62EWxUmSz6-aSFfVlWEd-73">
          <mxGeometry relative="1" as="geometry">
            <mxPoint x="410" y="240" as="sourcePoint" />
            <mxPoint x="570" y="240" as="targetPoint" />
          </mxGeometry>
        </mxCell>
        <mxCell id="62EWxUmSz6-aSFfVlWEd-75" value="1" style="resizable=0;html=1;whiteSpace=wrap;align=right;verticalAlign=bottom;" connectable="0" vertex="1" parent="62EWxUmSz6-aSFfVlWEd-74">
          <mxGeometry x="1" relative="1" as="geometry" />
        </mxCell>
        <mxCell id="62EWxUmSz6-aSFfVlWEd-93" value="" style="endArrow=none;html=1;rounded=0;exitX=0.25;exitY=1;exitDx=0;exitDy=0;entryX=0.5;entryY=0;entryDx=0;entryDy=0;" edge="1" parent="1" source="62EWxUmSz6-aSFfVlWEd-51" target="62EWxUmSz6-aSFfVlWEd-85">
          <mxGeometry relative="1" as="geometry">
            <mxPoint x="410" y="190" as="sourcePoint" />
            <mxPoint x="410" y="230" as="targetPoint" />
          </mxGeometry>
        </mxCell>
        <mxCell id="62EWxUmSz6-aSFfVlWEd-94" value="1" style="resizable=0;html=1;whiteSpace=wrap;align=right;verticalAlign=bottom;" connectable="0" vertex="1" parent="62EWxUmSz6-aSFfVlWEd-93">
          <mxGeometry x="1" relative="1" as="geometry" />
        </mxCell>
        <mxCell id="62EWxUmSz6-aSFfVlWEd-96" value="" style="endArrow=none;html=1;rounded=0;exitX=0.75;exitY=1;exitDx=0;exitDy=0;entryX=0.5;entryY=0;entryDx=0;entryDy=0;" edge="1" parent="1" source="62EWxUmSz6-aSFfVlWEd-51" target="62EWxUmSz6-aSFfVlWEd-95">
          <mxGeometry relative="1" as="geometry">
            <mxPoint x="530" y="320" as="sourcePoint" />
            <mxPoint x="530" y="350" as="targetPoint" />
            <Array as="points">
              <mxPoint x="560" y="350" />
              <mxPoint x="570" y="350" />
            </Array>
          </mxGeometry>
        </mxCell>
        <mxCell id="62EWxUmSz6-aSFfVlWEd-97" value="1" style="resizable=0;html=1;whiteSpace=wrap;align=right;verticalAlign=bottom;" connectable="0" vertex="1" parent="62EWxUmSz6-aSFfVlWEd-96">
          <mxGeometry x="1" relative="1" as="geometry" />
        </mxCell>
        <mxCell id="62EWxUmSz6-aSFfVlWEd-80" value="" style="endArrow=none;html=1;rounded=0;exitX=1;exitY=0.5;exitDx=0;exitDy=0;entryX=0;entryY=0.5;entryDx=0;entryDy=0;" edge="1" parent="1" source="62EWxUmSz6-aSFfVlWEd-76" target="62EWxUmSz6-aSFfVlWEd-73">
          <mxGeometry relative="1" as="geometry">
            <mxPoint x="410" y="290" as="sourcePoint" />
            <mxPoint x="570" y="290" as="targetPoint" />
          </mxGeometry>
        </mxCell>
        <mxCell id="62EWxUmSz6-aSFfVlWEd-81" value="" style="endArrow=none;html=1;rounded=0;exitX=1;exitY=1;exitDx=0;exitDy=0;entryX=0;entryY=0;entryDx=0;entryDy=0;" edge="1" parent="1" source="62EWxUmSz6-aSFfVlWEd-77" target="62EWxUmSz6-aSFfVlWEd-73">
          <mxGeometry relative="1" as="geometry">
            <mxPoint x="410" y="290" as="sourcePoint" />
            <mxPoint x="570" y="290" as="targetPoint" />
          </mxGeometry>
        </mxCell>
        <mxCell id="62EWxUmSz6-aSFfVlWEd-82" value="" style="endArrow=none;html=1;rounded=0;exitX=0;exitY=1;exitDx=0;exitDy=0;entryX=1;entryY=0;entryDx=0;entryDy=0;" edge="1" parent="1" source="62EWxUmSz6-aSFfVlWEd-79" target="62EWxUmSz6-aSFfVlWEd-73">
          <mxGeometry relative="1" as="geometry">
            <mxPoint x="410" y="290" as="sourcePoint" />
            <mxPoint x="570" y="290" as="targetPoint" />
          </mxGeometry>
        </mxCell>
        <mxCell id="62EWxUmSz6-aSFfVlWEd-83" value="" style="endArrow=none;html=1;rounded=0;exitX=0.083;exitY=0.507;exitDx=0;exitDy=0;exitPerimeter=0;entryX=1;entryY=0.5;entryDx=0;entryDy=0;" edge="1" parent="1" source="62EWxUmSz6-aSFfVlWEd-78" target="62EWxUmSz6-aSFfVlWEd-73">
          <mxGeometry relative="1" as="geometry">
            <mxPoint x="410" y="290" as="sourcePoint" />
            <mxPoint x="570" y="290" as="targetPoint" />
          </mxGeometry>
        </mxCell>
      </root>
    </mxGraphModel>
  </diagram>
</mxfile>
